<svg width="974" height="364" viewBox="0 0 974 364" fill="none" xmlns="http://www.w3.org/2000/svg">
<g clip-path="url(#clip0_1279_232)">
<path d="M837.539 363.896C758.517 363.896 701.178 322.94 701.178 260.3C701.178 217.898 735.87 186.579 764.781 178.869C735.87 165.859 713.224 138.395 713.224 101.775C713.224 40.5807 766.708 0.587891 837.539 0.587891C907.888 0.587891 961.372 40.5807 961.372 101.775C961.372 138.395 938.726 165.859 909.815 178.869C938.726 186.579 973.418 217.898 973.418 260.3C973.418 322.94 916.079 363.896 837.539 363.896ZM837.539 153.332C870.304 153.332 896.324 135.985 896.324 103.22C896.324 70.9367 870.304 53.1086 837.539 53.1086C804.774 53.1086 778.272 70.9367 778.272 103.22C778.272 135.985 804.774 153.332 837.539 153.332ZM837.539 310.412C877.532 310.412 904.033 289.211 904.033 257.891C904.033 225.608 877.532 204.889 837.539 204.889C797.064 204.889 770.563 225.608 770.563 257.891C770.563 289.211 797.064 310.412 837.539 310.412Z" fill="black"/>
<path d="M624.24 67.564H444.995V6.37012H700.371V67.0821C619.422 151.404 596.293 246.809 596.293 358.114H523.535C523.535 234.763 560.637 135.985 624.24 67.564Z" fill="black"/>
<path d="M425.021 71.9005C425.021 111.412 393.22 143.213 353.709 143.213C314.68 143.213 282.878 111.412 282.878 71.9005C282.878 32.3895 314.68 0.587891 353.709 0.587891C393.22 0.587891 425.021 32.3895 425.021 71.9005ZM323.353 71.9005C323.353 89.2468 336.844 103.22 353.709 103.22C371.055 103.22 384.065 89.2468 384.065 71.9005C384.065 54.5542 371.055 40.5808 353.709 40.5808C336.844 40.5808 323.353 54.5542 323.353 71.9005Z" fill="black"/>
<path d="M69.3851 231.872V358.114H0V6.37012H143.589C216.347 6.37012 267.904 44.9174 267.904 119.121C267.904 192.361 216.347 231.872 143.589 231.872H69.3851ZM140.216 66.1184H69.3851V172.124H140.216C178.763 172.124 199.482 150.923 199.482 119.121C199.482 86.3558 178.763 66.1184 140.216 66.1184Z" fill="black"/>
</g>
<defs>
<clipPath id="clip0_1279_232">
<rect width="974" height="364" fill="white"/>
</clipPath>
</defs>
</svg>
